# xmcd CD database file
#
# Track frame offsets:
#	150
#	27472
#	58564
#	83048
#	116543
#	139675
#	169093
#	193235
#	224054
#	246017
#	268652
#
# Disc length: 3839 seconds
#
# Revision: 0
# Processed by: cddbd v1.5.1PL2 Copyright (c) Steve Scherf et al.
# Submitted via: CDex 1.50
#
DISCID=a20efd0b
DTITLE=Lee Konitz and Kenny Werner - Unleemited
DYEAR=1992
DGENRE=Jazz
TTITLE0=Unleemited [Take 1]
TTITLE1=Les Fesses au Clair de Lune
TTITLE2=O Gato
TTITLE3=Monica
TTITLE4=Ohad
TTITLE5=Nota della Notte
TTITLE6=Brazilian Fondue
TTITLE7=Baby I'm a Legend
TTITLE8=La Valse qui rit
TTITLE9=Scent of Dream
TTITLE10=Pick-a-Boo!
EXTD=YEAR: 1992
EXTT0=
EXTT1=
EXTT2=
EXTT3=
EXTT4=
EXTT5=
EXTT6=
EXTT7=
EXTT8=
EXTT9=
EXTT10=
PLAYORDER=
